<svg width="224" height="74" viewBox="0 0 224 74" fill="none" xmlns="http://www.w3.org/2000/svg">
<path d="M22.2572 20.33C20.8199 20.33 19.5585 20.022 18.4732 19.406C17.4025 18.7753 16.5739 17.8587 15.9872 16.656C15.4005 15.4533 15.1072 14.0013 15.1072 12.3C15.1072 10.5987 15.4005 9.14667 15.9872 7.944C16.5739 6.74133 17.4025 5.832 18.4732 5.216C19.5585 4.58533 20.8199 4.27 22.2572 4.27C23.6945 4.27 24.9485 4.58533 26.0192 5.216C27.1045 5.832 27.9405 6.74133 28.5272 7.944C29.1139 9.14667 29.4072 10.5987 29.4072 12.3C29.4072 14.0013 29.1139 15.4533 28.5272 16.656C27.9405 17.8587 27.1045 18.7753 26.0192 19.406C24.9485 20.022 23.6945 20.33 22.2572 20.33ZM22.2572 19.89C22.8292 19.89 23.3572 19.648 23.8412 19.164C24.3399 18.68 24.7505 17.8733 25.0732 16.744C25.3959 15.6147 25.5572 14.1333 25.5572 12.3C25.5572 10.4667 25.3959 8.98533 25.0732 7.856C24.7505 6.72667 24.3399 5.92 23.8412 5.436C23.3572 4.952 22.8292 4.71 22.2572 4.71C21.6852 4.71 21.1499 4.952 20.6512 5.436C20.1672 5.92 19.7639 6.72667 19.4412 7.856C19.1185 8.98533 18.9572 10.4667 18.9572 12.3C18.9572 14.1333 19.1185 15.6147 19.4412 16.744C19.7639 17.8733 20.1672 18.68 20.6512 19.164C21.1499 19.648 21.6852 19.89 22.2572 19.89ZM33.4823 8.34V19.01L35.2423 19.67V20H31.0623V19.67L32.8223 19.01V5.37L31.2823 4.93V4.6H33.5923C34.3697 4.6 34.9783 4.73933 35.4183 5.018C35.8583 5.29667 36.2763 5.67067 36.6723 6.14L43.7123 14.39V5.59L41.9523 4.93V4.6H46.1323V4.93L44.3723 5.59V20.33H43.7123L33.4823 8.34ZM47.5727 19.67L48.8927 19.34V5.26L47.5727 4.93V4.6H53.8427V4.93L52.5227 5.26V19.45H57.2527C57.2527 18.526 57.4873 17.668 57.9567 16.876C58.162 16.5387 58.404 16.26 58.6827 16.04H59.3427V20H47.5727V19.67ZM61.0004 20V19.67L62.3204 19.34V5.26L61.0004 4.93V4.6H67.2704V4.93L65.9504 5.26V19.34L67.2704 19.67V20H61.0004ZM71.2304 8.34V19.01L72.9904 19.67V20H68.8104V19.67L70.5704 19.01V5.37L69.0304 4.93V4.6H71.3404C72.1177 4.6 72.7264 4.73933 73.1664 5.018C73.6064 5.29667 74.0244 5.67067 74.4204 6.14L81.4604 14.39V5.59L79.7004 4.93V4.6H83.8804V4.93L82.1204 5.59V20.33H81.4604L71.2304 8.34ZM85.3207 19.67L86.6407 19.34V5.26L85.3207 4.93V4.6H97.0907V8.56H96.4307C96.152 8.34 95.91 8.06133 95.7047 7.724C95.2354 6.932 95.0007 6.074 95.0007 5.15H90.2707V12.08H92.8007C92.9034 11.5227 93.094 11.002 93.3727 10.518C93.49 10.298 93.6294 10.0853 93.7907 9.88H94.4507V14.83H93.7907C93.6294 14.6247 93.49 14.412 93.3727 14.192C93.094 13.708 92.9034 13.1873 92.8007 12.63H90.2707V19.45H95.4407C95.4407 18.526 95.6754 17.668 96.1447 16.876C96.35 16.5387 96.592 16.26 96.8707 16.04H97.5307V20H85.3207V19.67ZM113.036 20.33C110.69 20.33 108.856 19.6333 107.536 18.24C106.216 16.8467 105.556 14.8667 105.556 12.3C105.556 10.6133 105.842 9.16867 106.414 7.966C107.001 6.74867 107.815 5.832 108.856 5.216C109.912 4.58533 111.13 4.27 112.508 4.27C113.344 4.27 114.188 4.512 115.038 4.996C115.361 5.172 115.684 5.40667 116.006 5.7C116.256 5.31867 116.512 5.018 116.776 4.798C117.04 4.60733 117.187 4.50467 117.216 4.49H117.766V8.67H116.886C116.696 7.966 116.41 7.328 116.028 6.756C115.676 6.19867 115.236 5.73667 114.708 5.37C114.195 5.00333 113.601 4.82 112.926 4.82C111.914 4.82 111.071 5.40667 110.396 6.58C109.736 7.75333 109.406 9.66 109.406 12.3C109.406 14.984 109.766 16.9053 110.484 18.064C111.218 19.208 112.215 19.78 113.476 19.78C114.166 19.78 114.818 19.5893 115.434 19.208C116.065 18.812 116.571 18.2913 116.952 17.646C117.348 17.0007 117.546 16.3187 117.546 15.6H118.096C118.096 16.436 117.869 17.2207 117.414 17.954C116.974 18.6727 116.366 19.252 115.588 19.692C114.826 20.1173 113.975 20.33 113.036 20.33ZM126.585 20.33C125.148 20.33 123.887 20.022 122.801 19.406C121.731 18.7753 120.902 17.8587 120.315 16.656C119.729 15.4533 119.435 14.0013 119.435 12.3C119.435 10.5987 119.729 9.14667 120.315 7.944C120.902 6.74133 121.731 5.832 122.801 5.216C123.887 4.58533 125.148 4.27 126.585 4.27C128.023 4.27 129.277 4.58533 130.347 5.216C131.433 5.832 132.269 6.74133 132.855 7.944C133.442 9.14667 133.735 10.5987 133.735 12.3C133.735 14.0013 133.442 15.4533 132.855 16.656C132.269 17.8587 131.433 18.7753 130.347 19.406C129.277 20.022 128.023 20.33 126.585 20.33ZM126.585 19.89C127.157 19.89 127.685 19.648 128.169 19.164C128.668 18.68 129.079 17.8733 129.401 16.744C129.724 15.6147 129.885 14.1333 129.885 12.3C129.885 10.4667 129.724 8.98533 129.401 7.856C129.079 6.72667 128.668 5.92 128.169 5.436C127.685 4.952 127.157 4.71 126.585 4.71C126.013 4.71 125.478 4.952 124.979 5.436C124.495 5.92 124.092 6.72667 123.769 7.856C123.447 8.98533 123.285 10.4667 123.285 12.3C123.285 14.1333 123.447 15.6147 123.769 16.744C124.092 17.8733 124.495 18.68 124.979 19.164C125.478 19.648 126.013 19.89 126.585 19.89ZM137.81 8.34V19.01L139.57 19.67V20H135.39V19.67L137.15 19.01V5.37L135.61 4.93V4.6H137.92C138.698 4.6 139.306 4.73933 139.746 5.018C140.186 5.29667 140.604 5.67067 141 6.14L148.04 14.39V5.59L146.28 4.93V4.6H150.46V4.93L148.7 5.59V20.33H148.04L137.81 8.34ZM154.866 19.67L156.186 19.34V5.15H153.656C153.656 6.04467 153.414 6.90267 152.93 7.724C152.724 8.06133 152.49 8.34 152.226 8.56H151.566V4.6H164.436V8.56H163.776C163.497 8.34 163.255 8.06133 163.05 7.724C162.58 6.932 162.346 6.074 162.346 5.15H159.816V19.34L161.136 19.67V20H154.866V19.67ZM166.08 19.67L167.4 19.34V5.26L166.08 4.93V4.6H171.91C174.404 4.6 176.2 4.98133 177.3 5.744C178.4 6.492 178.95 7.54067 178.95 8.89C178.95 9.79933 178.708 10.54 178.224 11.112C177.74 11.6693 177.117 12.0873 176.354 12.366C175.548 12.674 174.69 12.8353 173.78 12.85V12.96C174.323 12.9893 174.8 13.07 175.21 13.202C176.237 13.5247 176.934 14.104 177.3 14.94L179.28 19.34L180.38 19.67V20H177.3C176.098 20 175.218 19.3767 174.66 18.13L172.46 13.18H171.03V19.34L172.57 19.67V20H166.08V19.67ZM171.91 12.63C172.937 12.63 173.744 12.3073 174.33 11.662C174.917 11.0167 175.21 10.0927 175.21 8.89C175.21 7.68733 174.917 6.76333 174.33 6.118C173.744 5.47267 172.937 5.15 171.91 5.15H171.03V12.63H171.91ZM188.31 20.33C186.873 20.33 185.611 20.022 184.526 19.406C183.455 18.7753 182.627 17.8587 182.04 16.656C181.453 15.4533 181.16 14.0013 181.16 12.3C181.16 10.5987 181.453 9.14667 182.04 7.944C182.627 6.74133 183.455 5.832 184.526 5.216C185.611 4.58533 186.873 4.27 188.31 4.27C189.747 4.27 191.001 4.58533 192.072 5.216C193.157 5.832 193.993 6.74133 194.58 7.944C195.167 9.14667 195.46 10.5987 195.46 12.3C195.46 14.0013 195.167 15.4533 194.58 16.656C193.993 17.8587 193.157 18.7753 192.072 19.406C191.001 20.022 189.747 20.33 188.31 20.33ZM188.31 19.89C188.882 19.89 189.41 19.648 189.894 19.164C190.393 18.68 190.803 17.8733 191.126 16.744C191.449 15.6147 191.61 14.1333 191.61 12.3C191.61 10.4667 191.449 8.98533 191.126 7.856C190.803 6.72667 190.393 5.92 189.894 5.436C189.41 4.952 188.882 4.71 188.31 4.71C187.738 4.71 187.203 4.952 186.704 5.436C186.22 5.92 185.817 6.72667 185.494 7.856C185.171 8.98533 185.01 10.4667 185.01 12.3C185.01 14.1333 185.171 15.6147 185.494 16.744C185.817 17.8733 186.22 18.68 186.704 19.164C187.203 19.648 187.738 19.89 188.31 19.89ZM197.555 19.67L198.875 19.34V5.26L197.555 4.93V4.6H203.825V4.93L202.505 5.26V19.45H207.235C207.235 18.526 207.47 17.668 207.939 16.876C208.144 16.5387 208.386 16.26 208.665 16.04H209.325V20H197.555V19.67Z" fill="white"/>
<rect x="55.0005" y="58.812" width="32" height="1.54334" rx="0.771672" fill="#E3B873"/>
<rect x="137" y="58.812" width="32" height="1.54334" rx="0.771672" fill="#E3B873"/>
<path d="M128.851 54.7655L104.731 45.8293C104.422 45.7153 104.079 45.8731 103.966 46.1818C103.965 46.1821 103.965 46.1823 103.965 46.1826L101.295 53.4507C101.181 53.7595 101.34 54.102 101.648 54.2155H101.649L104.445 55.2421L103.829 56.9204C103.716 57.2292 103.874 57.5712 104.183 57.6847L109.775 59.738L109.364 60.8569C108.991 61.8589 109.339 62.987 110.213 63.6032V66.6434H102.197C101.809 65.7564 101.015 65.1123 100.067 64.9158V63.6648C100.067 63.3357 99.8006 63.069 99.4713 63.069H97.0694C96.7404 63.069 96.4736 63.3357 96.4736 63.6648V73.1965C96.4736 73.5258 96.7404 73.7923 97.0694 73.7923H99.4713C99.8006 73.7923 100.067 73.5258 100.067 73.1965V71.9457C101.015 71.7489 101.809 71.1051 102.197 70.2178H110.213V70.8136C110.213 71.8007 111.013 72.601 112 72.601C112.988 72.601 113.788 71.8007 113.788 70.8136V64.214C114.329 63.9455 114.748 63.4797 114.956 62.9122L115.367 61.7934L120.4 63.6403C120.466 63.6645 120.535 63.6768 120.605 63.6768C120.855 63.6768 121.079 63.521 121.165 63.2865L121.388 62.6782C123.327 63.043 125.194 61.7672 125.558 59.8288C125.693 59.1125 125.606 58.3722 125.308 57.7072L128.919 55.8528C129.212 55.7028 129.328 55.3438 129.178 55.051C129.11 54.918 128.994 54.8155 128.854 54.7638L128.851 54.7655ZM111.405 64.146L111.898 64.3248C112.122 64.4053 112.358 64.4515 112.596 64.4618V66.6434H111.405V64.146ZM98.8758 72.601H97.6652V64.2605H98.8758V72.601ZM101.259 69.0265C101.258 69.7836 100.781 70.4584 100.067 70.7119V66.1496C100.781 66.4029 101.258 67.0777 101.259 67.835V69.0265ZM102.469 67.835H112.596V69.0265H102.469V67.835ZM112 71.4094C111.671 71.4094 111.405 71.1426 111.405 70.8136V70.2178H112.596V70.8136C112.596 71.1426 112.329 71.4094 112 71.4094ZM114.249 61.3831L113.838 62.5019C113.611 63.119 112.927 63.4355 112.309 63.209L111.188 62.7985C110.571 62.5717 110.254 61.8872 110.481 61.2694C110.481 61.2694 110.481 61.2694 110.481 61.2691L110.892 60.1511L113.912 61.2596L114.249 61.3831ZM120.252 62.3184L105.152 56.7736L105.564 55.6548L114.511 58.9405C114.723 59.0175 114.96 58.9693 115.125 58.8152L116.797 57.2414L121.484 58.963L120.252 62.3184ZM124.28 59.9901C123.903 61.0079 122.887 61.6439 121.807 61.5391L122.728 59.0315L124.231 58.2572C124.466 58.8077 124.484 59.4273 124.28 59.9901ZM122.269 57.9302C122.238 57.9329 122.206 57.9384 122.176 57.9467L116.864 55.9963C116.652 55.9186 116.415 55.9668 116.25 56.1214L114.577 57.6954L102.619 53.3042L104.877 47.1544L127.168 55.4126L122.269 57.9302Z" fill="#E3B873"/>
<path d="M108.129 53.7034L107.604 55.1233M110.419 54.5434L109.894 55.9633M112.641 55.3699L112.116 56.7898" stroke="#E3B873" stroke-linecap="round"/>
</svg>
