<svg xmlns="http://www.w3.org/2000/svg" viewBox="0 0 41 47"><svg width="41" height="35" viewBox="0 0 41 35" fill="none" x="0" y="0">
<path d="M37.5581 15.4428L37.5581 15.4427C37.1069 13.2849 36.0951 11.2508 34.6321 9.5602C33.2237 7.93259 31.4214 6.65133 29.4118 5.84368C29.0828 4.50765 28.3927 3.13004 27.0386 2.09265C25.7205 1.08288 24.3931 0.888236 24.3338 0.879917L24.3338 0.879908C24.1374 0.852614 23.9377 0.909602 23.7872 1.03689C23.6366 1.16422 23.5498 1.34918 23.5498 1.54422V4.84776H21.3254C20.736 2.93366 18.9142 1.53565 16.7634 1.53565C14.5652 1.53565 12.7096 2.99559 12.1632 4.97472C9.01519 5.40046 6.11974 6.89118 3.96924 9.20468L4.00586 9.23872L3.96924 9.20468C1.69996 11.6462 0.45 14.807 0.45 18.1048C0.45 25.4944 4.38387 31.5047 5.5891 33.1702C5.97046 33.6973 6.59453 34.0115 7.2582 34.0115H9.96922C11.0961 34.0115 12.015 33.1174 12.015 32.0156V31.214C12.6849 31.3117 13.3649 31.3618 14.0457 31.3618H20.1528V32.0156C20.1528 33.1174 21.0717 34.0115 22.1986 34.0115H25.1765C26.134 34.0115 26.9756 33.3491 27.1767 32.4341L27.4969 30.9776C31.673 29.976 35.0324 27.1195 36.6959 23.4129H39.1837C39.9359 23.4129 40.55 22.816 40.55 22.0795V16.78C40.55 16.4234 40.4075 16.0882 40.1493 15.8365C39.8912 15.5849 39.5483 15.4465 39.1838 15.4465H39.1837H39.1837H39.1837H39.1836H39.1836H39.1836H39.1835L37.5592 15.4467C37.5587 15.4454 37.5584 15.4441 37.5581 15.4428ZM39.1762 22.0293H39.1761V22.0708H37.2111C37.5469 21.0272 37.7538 19.9313 37.8138 18.802C37.8337 18.4307 37.5411 18.1162 37.1633 18.0971C36.7857 18.0784 36.4615 18.3611 36.4418 18.7324C36.1746 23.755 32.6861 28.0486 27.8218 29.4988L28.6936 25.5325C28.7736 25.1689 28.5358 24.8128 28.1656 24.7355C27.7961 24.658 27.4301 24.8876 27.3503 25.2508L25.8334 32.1523C25.7678 32.4509 25.4919 32.6694 25.1765 32.6694H22.1984C21.8268 32.6694 21.5266 32.3748 21.5266 32.0156V29.3658C21.5266 28.994 21.2178 28.6948 20.8396 28.6948C20.4614 28.6948 20.1527 28.994 20.1527 29.3658V30.0197H14.0455C13.3637 30.0197 12.6831 29.9637 12.0148 29.8549V25.3914C12.0148 25.0196 11.7061 24.7204 11.3279 24.7204C10.9497 24.7204 10.6409 25.0196 10.6409 25.3914V32.0156C10.6409 32.3749 10.3407 32.6695 9.96906 32.6695H7.2582C7.03553 32.6695 6.83663 32.5694 6.71107 32.3957L6.71106 32.3957C5.56414 30.8104 1.82391 25.0966 1.82391 18.1047C1.82391 15.1413 2.94692 12.301 4.98639 10.1068L4.94977 10.0728L4.98639 10.1068C6.84008 8.11243 9.30923 6.79824 12.0037 6.35608C12.0187 6.74406 12.0834 7.12762 12.195 7.4974H12.0074C11.6292 7.4974 11.3205 7.79662 11.3205 8.16843C11.3205 8.54023 11.6292 8.83945 12.0074 8.83945H21.5191C21.8974 8.83945 22.2061 8.54023 22.2061 8.16843C22.2061 7.79662 21.8974 7.4974 21.5191 7.4974H21.3315C21.4592 7.07485 21.5258 6.63439 21.5266 6.18974H23.5498V7.50596C23.5498 7.87776 23.8585 8.17699 24.2367 8.17699C24.6149 8.17699 24.9237 7.87776 24.9237 7.50596V2.43193C25.5183 2.66114 26.343 3.1096 27.0288 3.96507C27.7404 4.85262 28.3056 6.18202 28.3056 8.1685C28.3056 8.5403 28.6144 8.83953 28.9926 8.83953C29.3708 8.83953 29.6795 8.5403 29.6795 8.1685C29.6795 7.93061 29.6716 7.68076 29.6536 7.4229C31.1527 8.14776 32.4978 9.17284 33.5829 10.4267C34.8977 11.9462 35.8068 13.7736 36.212 15.7114C36.3426 16.3363 36.9049 16.7889 37.5487 16.7888L39.1762 16.7887V22.0293ZM16.7633 2.87779C18.6334 2.87779 20.1527 4.36098 20.1527 6.18133C20.1527 6.63615 20.0552 7.08443 19.871 7.49755L13.6555 7.49755C13.4714 7.08428 13.3737 6.63614 13.3737 6.18133C13.3737 4.36091 14.8931 2.87779 16.7633 2.87779Z" fill="white" stroke="white" stroke-width="0.1"/>
</svg><svg width="9" height="12" viewBox="0 0 9 12" fill="none" x="16" y="35">
<path d="M7.71156 6.51805C7.06012 6.07627 6.22008 5.80558 5.45019 5.59327V2.51434C6.04508 2.59149 6.5484 2.76377 6.90469 2.97655C7.27583 3.1982 7.47331 3.45451 7.47331 3.68297C7.47331 4.05477 7.78206 4.354 8.16027 4.354C8.53848 4.354 8.84722 4.05477 8.84722 3.68297C8.84722 3.02739 8.47315 2.44126 7.85886 1.99805C7.25403 1.56168 6.41271 1.26062 5.45019 1.16281V1.13678C5.45019 0.764974 5.14144 0.465747 4.76323 0.465747C4.38502 0.465747 4.07628 0.764974 4.07628 1.13678V1.16281C3.11375 1.26062 2.27243 1.56168 1.66761 1.99805C1.05331 2.44126 0.679248 3.02739 0.679248 3.68297C0.679248 4.61049 1.15075 5.24139 1.81488 5.69179C2.46631 6.13358 3.30635 6.40428 4.07628 6.6166V9.69553C3.48139 9.61838 2.97807 9.44609 2.62178 9.23332C2.25063 9.01166 2.05315 8.75536 2.05315 8.52689C2.05315 8.15509 1.74441 7.85586 1.3662 7.85586C0.987991 7.85586 0.679248 8.15509 0.679248 8.52689C0.679248 9.18248 1.05331 9.7686 1.66761 10.2118C2.27243 10.6482 3.11375 10.9492 4.07628 11.0471V11.0731C4.07628 11.4449 4.38502 11.7441 4.76323 11.7441C5.14144 11.7441 5.45019 11.4449 5.45019 11.0731V11.0471C6.41271 10.9492 7.25403 10.6482 7.85886 10.2118C8.47315 9.7686 8.84722 9.18248 8.84722 8.52689C8.84722 7.59934 8.3757 6.96844 7.71156 6.51805ZM4.07628 2.51434V5.21051C3.32859 4.97821 2.82483 4.75702 2.50666 4.51564C2.18275 4.26991 2.05315 4.00506 2.05315 3.68297C2.05315 3.45451 2.25063 3.1982 2.62178 2.97655C2.97807 2.76377 3.48139 2.59149 4.07628 2.51434ZM6.90466 9.23339C6.54836 9.44617 6.04504 9.61845 5.45019 9.69561V6.99943C6.19788 7.23169 6.70163 7.45288 7.01981 7.69427C7.34372 7.94001 7.47331 8.20488 7.47331 8.52697C7.47331 8.75543 7.27582 9.01174 6.90466 9.23339Z" fill="white" stroke="white" stroke-width="0.1"/>
</svg></svg>