<svg width="9" height="10" viewBox="0 0 9 10" fill="none" xmlns="http://www.w3.org/2000/svg">
<path d="M7.73562 4.52993C7.83876 5.22545 7.71996 5.93578 7.39612 6.5599C7.07228 7.18401 6.55989 7.69011 5.93184 8.00623C5.30378 8.32235 4.59204 8.43238 3.89784 8.32068C3.20365 8.20897 2.56235 7.88122 2.06516 7.38403C1.56798 6.88685 1.24022 6.24555 1.12852 5.55135C1.01681 4.85716 1.12685 4.14542 1.44296 3.51736C1.75908 2.8893 2.26519 2.37692 2.8893 2.05308C3.51341 1.72924 4.22374 1.61044 4.91926 1.71358C5.62872 1.81878 6.28553 2.14937 6.79268 2.65652C7.29983 3.16366 7.63042 3.82048 7.73562 4.52993Z" stroke="white" stroke-width="1.5" stroke-linecap="round" stroke-linejoin="round"/>
</svg>
